<svg xmlns="http://www.w3.org/2000/svg" viewBox="0 0 384 840"><defs><style>.cls-1{fill:#c49a6c;}.cls-2{fill:#231f20;opacity:0.2;}.cls-3{fill:#808285;}.cls-4{fill:#fff;}</style></defs><title>door</title><g id="Layer_2" data-name="Layer 2"><g id="Layer_1-2" data-name="Layer 1"><path class="cls-1" d="M0,0V840H384V0ZM327.05,742.57H57V97.43h270.1Z"/><rect class="cls-2" x="56.95" y="97.43" width="270.09" height="645.14"/><rect class="cls-3" x="375" y="26" width="9" height="56.5"/><rect class="cls-3" x="375" y="757.83" width="9" height="56.5"/><rect class="cls-3" x="375" y="391.75" width="9" height="56.5"/><path class="cls-4" d="M124.22,143H75.56V131.5h48.66V116.1h10.27v42.29H124.22Z"/><path class="cls-4" d="M75.56,192h26.07c5.88,0,7.86-3.72,7.86-7.11s-2-7.2-7.86-7.2H75.56V166.92h58.93v10.76H114.71a13.82,13.82,0,0,1,4.47,10.51,14,14,0,0,1-3.81,10.18c-3.48,3.47-7.53,4.38-12.25,4.38H75.56Z"/><path class="cls-4" d="M93.77,222.78c-5.63,0-9.6,3.31-9.6,9.44,0,4.71,1.4,7,4,9.76l-6.37,6.54c-4.47-4.39-6.79-8.61-6.79-16.39,0-10.18,4.64-19.94,22.1-19.94,14.07,0,22,7.61,22,18.78,0,12-8.61,18.79-20.86,18.79H93.77Zm12,15.4a8,8,0,0,0,0-14.41,10.6,10.6,0,0,0-4.64-1v16.39A10.6,10.6,0,0,0,105.77,238.18Z"/><path class="cls-4" d="M81.77,316.05c-5.13-4.88-6.71-10.34-6.71-16.63a21.27,21.27,0,0,1,6.21-15.73c5.88-5.87,12.5-6,23.75-6s17.88.09,23.76,6a21.26,21.26,0,0,1,6.2,15.73c0,13.74-8.93,20.6-18.87,22.18V310c5.63-1.32,8.61-4.72,8.61-10.59a9.71,9.71,0,0,0-3.14-7.37c-2.49-2.15-5.3-2.81-16.56-2.81s-14.15.66-16.63,2.81a9.65,9.65,0,0,0-3.06,7.37,10.55,10.55,0,0,0,3.31,8.19,11.35,11.35,0,0,0,7.86,2.65h2.15V299.42h9.68v22.26h-8.6C91.2,321.68,86.24,320.36,81.77,316.05Z"/><path class="cls-4" d="M106.93,356a7.17,7.17,0,0,0,2.56-5.71c0-3.31-2.48-6.95-7.94-6.95h-26V332.6h43.12v10.51h-4.14A14.62,14.62,0,0,1,119.18,354a13,13,0,0,1-4.06,10.18Z"/><path class="cls-4" d="M93.77,376.22c-5.63,0-9.6,3.31-9.6,9.43,0,4.72,1.4,7,4,9.77L81.85,402c-4.47-4.39-6.79-8.61-6.79-16.39,0-10.18,4.64-19.95,22.1-19.95,14.07,0,22,7.62,22,18.79,0,12-8.61,18.79-20.86,18.79H93.77Zm12,15.39a8,8,0,0,0,0-14.4,10.6,10.6,0,0,0-4.64-1V392.6A10.46,10.46,0,0,0,105.77,391.61Z"/><path class="cls-4" d="M93.77,421.57c-5.63,0-9.6,3.31-9.6,9.43,0,4.72,1.4,7,4,9.77l-6.37,6.54c-4.47-4.39-6.79-8.61-6.79-16.39,0-10.18,4.64-19.94,22.1-19.94,14.07,0,22,7.61,22,18.78,0,12-8.61,18.79-20.86,18.79H93.77Zm12,15.39a8,8,0,0,0,0-14.4,10.6,10.6,0,0,0-4.64-1V438A10.6,10.6,0,0,0,105.77,437Z"/><path class="cls-4" d="M75.56,483.56h26.07c5.88,0,7.86-3.73,7.86-7.12s-2-7.2-7.86-7.2H75.56V458.48h43.12V469h-4a14.75,14.75,0,0,1,4.47,10.76,14,14,0,0,1-3.81,10.18c-3.48,3.48-7.53,4.39-12.25,4.39H75.56Z"/><path class="cls-4" d="M75.56,531h26.07c5.88,0,7.86-3.73,7.86-7.12s-2-7.2-7.86-7.2H75.56V505.9h58.93v10.76H114.71a13.82,13.82,0,0,1,4.47,10.51,14,14,0,0,1-3.81,10.18c-3.48,3.48-7.53,4.39-12.25,4.39H75.56Z"/><path class="cls-4" d="M80.36,583.12a18,18,0,0,1-5.3-13.41,17.82,17.82,0,0,1,5.3-13.32c4.14-3.89,9-4.89,16.8-4.89s12.58,1,16.72,4.89a17.82,17.82,0,0,1,5.3,13.32c0,6.37-2.4,10.68-5.3,13.41C109.74,587,104.94,588,97.16,588S84.42,587.09,80.36,583.12Zm27.23-8.36a7.55,7.55,0,0,0,0-10c-2.15-2.23-6-2.48-10.43-2.48s-8.36.25-10.51,2.48a7.55,7.55,0,0,0,0,10c2.15,2.23,6,2.48,10.51,2.48S105.44,577,107.59,574.76Z"/><path class="cls-4" d="M75.56,623.09h4a14.75,14.75,0,0,1-4.47-10.76,14,14,0,0,1,3.81-10.18c3.48-3.47,7.53-4.38,12.25-4.38h27.56v10.75H92.61c-5.88,0-7.86,3.73-7.86,7.12s2,7.2,7.86,7.2h26.07V633.6H75.56Z"/><path class="cls-4" d="M75.06,659.84c0-6.79.75-12.83,6.21-18.38l7,7c-3.56,3.47-4.06,8.19-4.06,11.5,0,3.73,1.24,7.62,4.47,7.62,2.15,0,3.64-1.08,4-4.56l.66-6.95c.75-7.61,4.14-12.41,12.09-12.41,9,0,13.74,7.86,13.74,16.63,0,6.79-1.25,12.33-5.05,16.47l-6.71-6.62c2.24-2.48,2.9-6.21,2.9-10,0-4.31-2-6.13-4.14-6.13s-3.39,1.24-3.72,4.47l-.66,6.79c-.83,8.52-5.3,12.83-12.67,12.83C79.62,678.13,75.06,670,75.06,659.84Z"/><path class="cls-4" d="M93.77,695.59c-5.63,0-9.6,3.31-9.6,9.43,0,4.72,1.4,7,4,9.77l-6.37,6.54c-4.47-4.39-6.79-8.61-6.79-16.39,0-10.18,4.64-19.94,22.1-19.94,14.07,0,22,7.61,22,18.78,0,12-8.61,18.79-20.86,18.79H93.77Zm12,15.39a8,8,0,0,0,0-14.4,10.6,10.6,0,0,0-4.64-1V712A10.6,10.6,0,0,0,105.77,711Z"/><circle class="cls-3" cx="29.46" cy="475.46" r="7.87"/><circle class="cls-3" cx="30.75" cy="523.25" r="10.6"/><rect class="cls-3" x="32.55" y="518.42" width="46.52" height="9.67" rx="4.83" ry="4.83"/></g></g></svg>