<svg xmlns="http://www.w3.org/2000/svg" viewBox="0 0 384 720"><defs><style>.cls-1{fill:#c3996b;}</style></defs><title>shelves</title><g id="Layer_2" data-name="Layer 2"><g id="Layer_1-2" data-name="Layer 1"><rect class="cls-1" x="369" width="15" height="720"/><rect class="cls-1" width="15" height="720"/><rect class="cls-1" x="184.5" width="15" height="720"/><rect class="cls-1" x="97.25" y="-64.25" width="5" height="169.5" transform="translate(79.25 120.25) rotate(-90)"/><rect class="cls-1" x="97.25" y="125.75" width="5" height="169.5" transform="translate(-110.75 310.25) rotate(-90)"/><rect class="cls-1" x="97.25" y="351.75" width="5" height="169.5" transform="translate(-336.75 536.25) rotate(-90)"/><rect class="cls-1" x="281.75" y="-64.25" width="5" height="169.5" transform="translate(263.75 304.75) rotate(-90)"/><rect class="cls-1" x="281.75" y="12.75" width="5" height="169.5" transform="translate(186.75 381.75) rotate(-90)"/><rect class="cls-1" x="281.75" y="125.75" width="5" height="169.5" transform="translate(73.75 494.75) rotate(-90)"/><rect class="cls-1" x="281.75" y="238.75" width="5" height="169.5" transform="translate(-39.25 607.75) rotate(-90)"/><rect class="cls-1" x="281.75" y="351.75" width="5" height="169.5" transform="translate(-152.25 720.75) rotate(-90)"/><rect class="cls-1" x="281.75" y="464.75" width="5" height="169.5" transform="translate(-265.25 833.75) rotate(-90)"/></g></g></svg>